<svg width="110" height="20" viewBox="0 0 110 20" fill="none" xmlns="http://www.w3.org/2000/svg">
<path d="M6.182 9.763V8.062H12.65V14.824C11.222 15.643 9.542 16.084 7.757 16.084C3.074 16.084 0.281 13.186 0.281 8.503C0.281 3.925 2.969 1.006 7.232 1.006C8.849 1.006 10.592 1.447 11.894 2.182V4.471C10.718 3.589 9.038 3.043 7.484 3.043C4.418 3.043 2.696 5.059 2.696 8.545C2.696 12.157 4.565 14.215 7.925 14.215C8.891 14.215 9.794 14.005 10.55 13.627V9.763H6.182ZM24.6382 16H22.6432C22.7692 14.719 22.8952 13.396 23.0212 12.115H22.6642C22.1602 14.803 20.6062 16.063 18.3592 16.063C16.1542 16.063 14.9782 14.824 14.9782 12.724C14.9782 10.435 16.3432 9.154 19.5562 9.406L22.5172 9.637V8.482C22.5172 6.991 21.5512 6.193 19.6612 6.193C18.2332 6.193 16.8892 6.634 15.9022 7.432L15.8182 5.395C16.8262 4.744 18.3382 4.345 19.9132 4.345C22.9582 4.345 24.6382 5.752 24.6382 8.272V16ZM22.4962 10.771H19.9552C17.9392 10.771 17.1832 11.338 17.1832 12.535C17.1832 13.585 17.7082 14.215 18.8632 14.215C20.7742 14.215 22.4962 12.577 22.4962 11.002V10.771ZM27.9764 16V4.45H30.1184C29.9714 5.815 29.8244 7.222 29.6774 8.587H30.0344C30.9374 5.563 32.0294 4.408 34.3394 4.408L34.1294 6.907H33.7094C31.0214 6.907 30.1604 8.44 30.1604 12.976V16H27.9764ZM37.3237 19.948C38.1637 19.108 39.2137 17.596 39.7807 16.231L38.8777 14.131L35.1817 4.45H37.5127L40.0327 11.674L40.3477 14.068H40.8097L41.4607 11.653L43.8547 4.45H46.0597L41.8597 16.399C41.3767 17.785 40.7047 19.045 40.0327 19.948H37.3237ZM59.9125 9.763V8.062H66.3805V14.824C64.9525 15.643 63.2725 16.084 61.4875 16.084C56.8045 16.084 54.0115 13.186 54.0115 8.503C54.0115 3.925 56.6995 1.006 60.9625 1.006C62.5795 1.006 64.3225 1.447 65.6245 2.182V4.471C64.4485 3.589 62.7685 3.043 61.2145 3.043C58.1485 3.043 56.4265 5.059 56.4265 8.545C56.4265 12.157 58.2955 14.215 61.6555 14.215C62.6215 14.215 63.5245 14.005 64.2805 13.627V9.763H59.9125ZM68.9397 10.225C68.9397 6.571 70.9977 4.345 74.3997 4.345C77.8227 4.345 79.8807 6.571 79.8807 10.225C79.8807 13.879 77.8227 16.105 74.3997 16.105C70.9977 16.105 68.9397 13.879 68.9397 10.225ZM71.2287 10.225C71.2287 13.228 72.5727 14.425 74.3997 14.425C76.2477 14.425 77.5917 13.228 77.5917 10.225C77.5917 7.222 76.2477 6.025 74.3997 6.025C72.5727 6.025 71.2287 7.222 71.2287 10.225ZM86.0107 14.11C86.7247 14.11 87.5227 13.753 88.2577 13.018L88.3417 15.076C87.5857 15.685 86.3047 16.084 85.3177 16.084C83.6587 16.084 82.5877 14.929 82.5877 12.955V0.0399989H84.7297V12.178C84.7297 13.48 85.1077 14.11 86.0107 14.11ZM100.343 0.0399989V16H98.285C98.369 14.698 98.474 13.375 98.579 12.073H98.201C97.592 15.076 96.143 16.063 94.232 16.063C91.334 16.063 89.591 13.837 89.591 10.225C89.591 6.655 91.313 4.366 94.19 4.366C96.038 4.366 97.739 5.29 98.306 8.377H98.621C98.495 7.033 98.348 5.647 98.201 4.282V0.0399989H100.343ZM94.589 6.235C92.846 6.235 91.859 7.747 91.859 10.267C91.859 12.955 92.972 14.236 94.799 14.236C96.773 14.236 98.201 11.38 98.201 9.721V9.385C97.151 7.075 95.87 6.235 94.589 6.235Z" fill="white"/>
<path d="M104.512 13.93C104.512 12.55 105.322 11.74 106.762 11.74C108.202 11.74 109.042 12.55 109.042 13.93C109.042 15.31 108.202 16.12 106.762 16.12C105.322 16.12 104.512 15.31 104.512 13.93Z" fill="#FFD700"/>
</svg>
