<svg width="389" height="588" viewBox="0 0 389 588" fill="none" xmlns="http://www.w3.org/2000/svg">
<g filter="url(#filter0_f_584_95)">
<path d="M206.916 487.929C178.4 477.065 117.295 450.451 101 430.897V259.801H284.317H292.464H296.538M198.769 382.012H255.801V414.602C253.085 421.391 246.024 434.97 239.506 434.97M198.769 349.423H288.391V426.823L251.727 467.56C220.495 456.697 153.143 431.711 133.59 418.676V300.538H288.391H292.464H296.538M286.5 227.211H101V141.914C101 141.835 101.101 141.802 101.147 141.866L133.59 186.474H251.727L286.354 141.851C286.402 141.79 286.5 141.824 286.5 141.901L286.5 227.211ZM194.695 202.769L145.811 153.885L194.695 105L239.506 153.885L194.695 202.769Z" stroke="url(#paint0_linear_584_95)" stroke-opacity="0.4" stroke-width="20.3685"/>
</g>
<path d="M208.874 486.028C180.358 475.165 117.298 450.452 101.001 430.898C101 430.897 101 430.896 101 430.895V259.801H284.317H293.5M198.769 382.012H255.801V414.583C255.801 414.595 255.799 414.607 255.794 414.619C253.073 421.414 246.019 434.97 239.506 434.97M198.769 349.423H282.5V427.998C282.5 427.999 282.5 428.001 282.499 428.001L251.73 467.557C251.728 467.559 251.726 467.56 251.724 467.559C220.492 456.695 153.148 431.713 133.592 418.677C133.59 418.676 133.59 418.674 133.59 418.673V300.538H288.391H292.464M284 227.211H101V141.914C101 141.835 101.101 141.802 101.147 141.866L133.59 186.474H251.727L283.853 143.695C283.9 143.633 284 143.666 284 143.744L284 227.211ZM239.456 153.829L194.753 105.063C194.721 105.029 194.668 105.027 194.635 105.06L145.868 153.827C145.837 153.859 145.837 153.91 145.868 153.942L194.635 202.709C194.668 202.742 194.721 202.74 194.753 202.706L239.456 153.94C239.484 153.908 239.484 153.861 239.456 153.829Z" stroke="url(#paint1_linear_584_95)" stroke-width="20.3685"/>
<defs>
<filter id="filter0_f_584_95" x="0.81543" y="0.277344" width="387.76" height="587.168" filterUnits="userSpaceOnUse" color-interpolation-filters="sRGB">
<feFlood flood-opacity="0" result="BackgroundImageFix"/>
<feBlend mode="normal" in="SourceGraphic" in2="BackgroundImageFix" result="shape"/>
<feGaussianBlur stdDeviation="45" result="effect1_foregroundBlur_584_95"/>
</filter>
<linearGradient id="paint0_linear_584_95" x1="96.9263" y1="296.464" x2="292.464" y2="296.464" gradientUnits="userSpaceOnUse">
<stop stop-color="#DFA70D"/>
<stop offset="0.513797" stop-color="#FAE3A5"/>
<stop offset="1" stop-color="#DFA70D"/>
</linearGradient>
<linearGradient id="paint1_linear_584_95" x1="96.9263" y1="296.464" x2="292.464" y2="296.464" gradientUnits="userSpaceOnUse">
<stop stop-color="#DFA70D"/>
<stop offset="0.513797" stop-color="#FAE3A5"/>
<stop offset="1" stop-color="#DFA70D"/>
</linearGradient>
</defs>
</svg>
